<?xml version="1.0" encoding="UTF-8" standalone="no"?><!DOCTYPE svg PUBLIC "-//W3C//DTD SVG 1.1//EN" "http://www.w3.org/Graphics/SVG/1.1/DTD/svg11.dtd"><svg width="100%" height="100%" viewBox="0 0 11112 11112" version="1.1" xmlns="http://www.w3.org/2000/svg" xmlns:xlink="http://www.w3.org/1999/xlink" xml:space="preserve" xmlns:serif="http://www.serif.com/" style="fill-rule:evenodd;clip-rule:evenodd;stroke-miterlimit:5;"><g id="logo"><path d="M5555.56,1813.89c2065.08,-0 3741.67,1676.59 3741.67,3741.67c0,2065.08 -1676.58,3741.67 -3741.67,3741.67c-2065.08,0 -3741.67,-1676.58 -3741.67,-3741.67c-0,-2065.08 1676.59,-3741.67 3741.67,-3741.67Zm-0,860.583c1590.11,0 2881.08,1290.97 2881.08,2881.08c-0,1590.11 -1290.97,2881.08 -2881.08,2881.08c-1590.11,-0 -2881.08,-1290.97 -2881.08,-2881.08c0,-1590.11 1290.97,-2881.08 2881.08,-2881.08Z" style="fill:#f58445;"/><path id="_1---curve" serif:id="1 - curve" d="M6555.56,9083.33l-1388.89,0l-0,-5500l-1555.56,1333.33l0,-1666.67l1555.56,-1222.22l1388.89,-0l-0,7055.56Z" style="fill:none;fill-rule:nonzero;stroke:#000;stroke-width:555.56px;"/><path d="M6555.56,9083.33l-1388.89,0l-0,-5500l-1555.56,1333.33l0,-1666.67l1555.56,-1222.22l1388.89,-0l-0,7055.56Z" style="fill:#fff;fill-rule:nonzero;"/><g id="text---red-bar" serif:id="text + red bar"><path d="M8418.23,4554.33l-6029.5,995.367l162.892,986.73l6029.5,-995.368l-162.892,-986.729Z" style="fill:#f58445;stroke:#f00;stroke-opacity:0;stroke-width:555.56px;stroke-linecap:round;stroke-linejoin:round;stroke-miterlimit:1.5;"/><g id="text---curves" serif:id="text - curves"><path d="M2954.31,6078.76l-229.019,38.234l-29.392,140.626l-74.337,12.41l124.506,-539.44l63.074,-10.53l293.359,469.68l-73.962,12.347l-74.229,-123.327Zm-216.327,-19.811l185.843,-31.026l-132.509,-220.463l-53.334,251.489Z" style="fill:#fff;fill-rule:nonzero;"/><path d="M3466.86,5610.26l57.277,343.095c7.696,47.636 -2.012,89.272 -29.121,124.907c-27.11,35.636 -67.889,59.898 -122.336,72.788l-19.032,3.889c-59.82,9.987 -109.989,3.045 -150.506,-20.826c-40.517,-23.87 -65.385,-61.871 -74.602,-114.003l-57.394,-343.787l71.334,-11.909l57.046,341.708c6.094,36.504 21.717,63.047 46.867,79.628c25.15,16.58 57.874,21.507 98.172,14.779c40.797,-6.811 70.344,-22.073 88.638,-45.788c18.295,-23.715 24.395,-53.825 18.301,-90.329l-57.104,-342.055l72.46,-12.097Z" style="fill:#fff;fill-rule:nonzero;"/><path d="M3967.39,5582.62l-175.706,29.333l75.155,450.182l-71.709,11.971l-75.155,-450.181l-175.33,29.27l-9.084,-54.41l422.745,-70.575l9.084,54.41Z" style="fill:#fff;fill-rule:nonzero;"/><path d="M4488.56,5715.76c8.254,49.442 6.447,94.093 -5.422,133.952c-11.869,39.86 -32.703,72.251 -62.502,97.174c-29.799,24.923 -66.724,41.062 -110.776,48.416c-43.05,7.187 -82.849,3.798 -119.398,-10.168c-36.548,-13.965 -67.038,-37.491 -91.471,-70.578c-24.433,-33.086 -40.873,-73.385 -49.319,-120.895l-6.075,-36.389c-8.1,-48.519 -6.119,-92.902 5.942,-133.149c12.062,-40.248 33.151,-73.038 63.267,-98.37c30.116,-25.333 66.7,-41.592 109.75,-48.779c43.802,-7.313 84.039,-3.997 120.712,9.948c36.674,13.944 67.116,37.953 91.328,72.027c24.212,34.073 40.426,75.715 48.641,124.927l5.323,31.884Zm-77.148,-20.606c-9.989,-59.839 -30.671,-103.585 -62.043,-131.239c-31.373,-27.653 -70.462,-37.573 -117.266,-29.759c-45.554,7.605 -78.737,29.59 -99.551,65.956c-20.813,36.365 -26.851,83.029 -18.114,139.99l6.191,37.082c9.681,57.991 30.492,101.359 62.433,130.105c31.941,28.746 71.064,39.254 117.368,31.524c46.554,-7.772 79.983,-29.443 100.287,-65.011c20.304,-35.568 25.952,-82.641 16.944,-141.219l-6.249,-37.429Z" style="fill:#fff;fill-rule:nonzero;"/><path d="M4928.68,5691.44l-183.214,30.586l-8.737,-52.33l183.215,-30.587l8.736,52.331Z" style="fill:#fff;fill-rule:nonzero;"/><path d="M5373.69,5291.92l72.46,-12.097l59.65,357.303c8.061,48.287 -1.339,88.684 -28.199,121.191c-26.86,32.507 -66.446,53.127 -118.758,61.86c-54.313,9.067 -98.753,3.306 -133.32,-17.283c-34.567,-20.589 -55.708,-53.988 -63.422,-100.196l72.085,-12.034c4.821,28.88 17.154,49.975 36.999,63.285c19.845,13.311 46.037,17.25 78.575,11.818c29.785,-4.972 52.429,-17.658 67.933,-38.057c15.504,-20.4 20.777,-46.215 15.82,-77.447l-59.823,-358.343Z" style="fill:#fff;fill-rule:nonzero;"/><path d="M5923.2,5479.1l-236.902,39.549l29.853,178.825l275.198,-45.942l9.083,54.409l-347.282,57.977l-84.238,-504.591l343.527,-57.35l9.083,54.41l-271.443,45.316l27.135,162.537l236.903,-39.55l9.083,54.41Z" style="fill:#fff;fill-rule:nonzero;"/><path d="M6090.17,5690.96l-84.238,-504.591l154.305,-25.76c47.556,-7.94 91.225,-5.256 131.008,8.051c39.783,13.307 72.613,36.205 98.489,68.694c25.877,32.489 42.817,71.932 50.82,118.33l5.381,32.23c7.945,47.594 4.958,90.958 -8.961,130.091c-13.92,39.133 -37.739,71.369 -71.455,96.709c-33.717,25.339 -75.066,42.335 -124.046,50.987l-151.303,25.259Zm-3.071,-462.215l66.072,395.771l75.839,-12.661c55.565,-9.276 96.14,-32.45 121.724,-69.521c25.584,-37.071 33.453,-85.091 23.609,-144.06l-4.923,-29.485c-9.573,-57.345 -31.593,-99.482 -66.061,-126.41c-34.467,-26.929 -78.521,-36.154 -132.161,-27.674l-84.099,14.04Z" style="fill:#fff;fill-rule:nonzero;"/><path d="M6694.3,5331.85l100.374,-277.153l81.846,-13.664l-135.648,347.873l31.416,188.182l-72.084,12.035l-31.417,-188.182l-241.293,-284.945l82.596,-13.789l184.21,229.643Z" style="fill:#fff;fill-rule:nonzero;"/><path d="M7451.45,5463.7l-72.46,12.097l-340.113,-342.897l64.915,388.84l-72.46,12.097l-84.238,-504.591l72.459,-12.097l341.153,344.505l-65.204,-390.573l71.709,-11.972l84.239,504.591Z" style="fill:#fff;fill-rule:nonzero;"/><path d="M7679.22,5184.52l-56.125,75.271l28.465,170.507l-72.084,12.034l-84.239,-504.591l72.084,-12.034l41.657,249.523l201.253,-290.076l87.102,-14.541l-177.926,258.752l279.06,243.019l-86.352,14.416l-232.895,-202.28Z" style="fill:#fff;fill-rule:nonzero;"/><path d="M8341.35,5179.42l-229.018,38.233l-29.392,140.626l-74.338,12.41l124.506,-539.44l63.074,-10.529l293.359,469.679l-73.962,12.348l-74.229,-123.327Zm-216.326,-19.812l185.842,-31.026l-132.509,-220.463l-53.333,251.489Z" style="fill:#fff;fill-rule:nonzero;"/></g></g></g></svg>